<svg width="34" height="30" viewBox="0 0 34 30" fill="none" xmlns="http://www.w3.org/2000/svg">
<path d="M24.4191 13.3708C24.0401 13.7521 23.7498 14.2123 23.569 14.7185C23.3882 15.2248 23.3213 15.7647 23.373 16.2998L23.355 16.2818C23.4082 16.9117 23.3232 17.5455 23.1061 18.1392C22.889 18.7328 22.5451 19.2719 22.0982 19.7189C21.6512 20.1658 21.112 20.5099 20.5183 20.7269C19.9247 20.944 19.2908 21.029 18.661 20.9758L18.6791 20.9938C17.9257 20.9237 17.1689 21.0876 16.512 21.4633C15.8552 21.839 15.3302 22.4081 15.0087 23.0931C14.6872 23.7781 14.5847 24.5455 14.7153 25.2909C14.846 26.0362 15.2033 26.7231 15.7386 27.2579C16.2739 27.7927 16.9611 28.1494 17.7065 28.2793C18.452 28.4093 19.2193 28.3061 19.904 27.984C20.5887 27.6618 21.1573 27.1364 21.5324 26.4792C21.9075 25.822 22.0708 25.0652 22 24.3118L22.019 24.3298C21.9658 23.7 22.0507 23.0661 22.2678 22.4724C22.4849 21.8788 22.829 21.3397 23.2759 20.8927C23.7229 20.4458 24.262 20.1017 24.8556 19.8847C25.4493 19.6676 26.0831 19.5826 26.713 19.6358L26.694 19.6178C27.3094 19.6731 27.929 19.5722 28.4951 19.3244C29.0611 19.0766 29.5554 18.6899 29.9322 18.2002C30.309 17.7105 30.5563 17.1335 30.6507 16.5229C30.7452 15.9122 30.6839 15.2876 30.4727 14.7068C30.2615 14.1261 29.9071 13.6081 29.4424 13.2008C28.9777 12.7935 28.4178 12.5101 27.8144 12.3769C27.211 12.2437 26.5837 12.2649 25.9907 12.4386C25.3977 12.6124 24.8582 12.933 24.4221 13.3708H24.4191Z" fill="#D0D0D0"/>
<path d="M17.042 18.6362L17.023 18.6182C17.5583 18.6721 18.0989 18.6064 18.6058 18.4258C19.1126 18.2452 19.573 17.9543 19.9536 17.574C20.3341 17.1937 20.6255 16.7335 20.8064 16.2268C20.9874 15.7201 21.0535 15.1796 21 14.6442L21.019 14.6622C20.9658 14.0323 21.0508 13.3985 21.2678 12.8048C21.4849 12.2112 21.829 11.6721 22.2759 11.2251C22.7229 10.7782 23.262 10.4341 23.8556 10.2171C24.4493 10 25.0831 9.91507 25.713 9.96824L25.694 9.95024C26.4475 10.021 27.2044 9.8576 27.8616 9.48234C28.5189 9.10708 29.0443 8.53821 29.3663 7.85334C29.6883 7.16848 29.7912 6.40095 29.661 5.65544C29.5308 4.90993 29.1738 4.22275 28.6386 3.68761C28.1035 3.15248 27.4163 2.79544 26.6708 2.66522C25.9253 2.53499 25.1578 2.6379 24.4729 2.95992C23.788 3.28193 23.2192 3.80738 22.8439 4.46459C22.4686 5.12179 22.3052 5.87876 22.376 6.63224L22.358 6.61324C22.4113 7.24313 22.3265 7.87707 22.1095 8.47079C21.8925 9.06451 21.5484 9.6037 21.1015 10.0507C20.6545 10.4976 20.1153 10.8417 19.5216 11.0587C18.9278 11.2757 18.2939 11.3605 17.664 11.3072L17.682 11.3262C17.1467 11.2723 16.606 11.338 16.0992 11.5186C15.5924 11.6991 15.132 11.9901 14.7514 12.3704C14.3708 12.7507 14.0795 13.2109 13.8985 13.7176C13.7176 14.2243 13.6515 14.7648 13.705 15.3002L13.687 15.2822C13.74 15.912 13.6549 16.5458 13.4378 17.1394C13.2206 17.7329 12.8766 18.272 12.4297 18.7189C11.9828 19.1658 11.4438 19.5098 10.8502 19.727C10.2566 19.9441 9.62284 20.0292 8.99303 19.9762L9.01103 19.9942C8.25755 19.9234 7.50058 20.0868 6.84337 20.4621C6.18617 20.8374 5.66072 21.4062 5.33871 22.0911C5.01669 22.776 4.91377 23.5435 5.044 24.289C5.17423 25.0345 5.53127 25.7217 6.0664 26.2568C6.60154 26.792 7.28872 27.149 8.03423 27.2792C8.77974 27.4094 9.54727 27.3065 10.2321 26.9845C10.917 26.6625 11.4859 26.1371 11.8611 25.4799C12.2364 24.8226 12.3998 24.0657 12.329 23.3122L12.348 23.3302C12.2948 22.7003 12.3798 22.0665 12.5969 21.4728C12.8139 20.8792 13.158 20.3401 13.6049 19.8931C14.0519 19.4462 14.591 19.1021 15.1846 18.8851C15.7783 18.668 16.4121 18.583 17.042 18.6362Z" fill="#FF5151"/>
<path d="M10.34 16.6289C10.719 16.2477 11.0092 15.7875 11.1898 15.2812C11.3704 14.7749 11.4371 14.2349 11.385 13.6999L11.404 13.7179C11.3508 13.0879 11.4357 12.4538 11.6529 11.86C11.8701 11.2662 12.2144 10.727 12.6616 10.28C13.1088 9.83306 13.6481 9.48907 14.242 9.27212C14.8359 9.05516 15.47 8.97046 16.1 9.02394L16.081 9.00594C16.8342 9.07651 17.5909 8.91302 18.2478 8.53778C18.9047 8.16255 19.4298 7.59382 19.7517 6.90917C20.0735 6.22451 20.1763 5.45726 20.0461 4.71203C19.9159 3.9668 19.5589 3.27988 19.024 2.74494C18.4891 2.21 17.8021 1.85308 17.0569 1.72286C16.3117 1.59263 15.5444 1.69545 14.8598 2.01727C14.1751 2.33909 13.6064 2.86426 13.2312 3.52116C12.8559 4.17806 12.6924 4.93472 12.763 5.68794L12.745 5.66994C12.7982 6.29979 12.7132 6.93366 12.4961 7.5273C12.279 8.12094 11.935 8.66005 11.488 9.10701C11.0411 9.55397 10.502 9.898 9.90832 10.115C9.31468 10.3321 8.68082 10.4171 8.05097 10.3639L8.06897 10.3819C7.45354 10.3267 6.83413 10.4278 6.26815 10.6757C5.70217 10.9236 5.20792 11.3104 4.83121 11.8002C4.4545 12.2899 4.20752 12.8669 4.11314 13.4775C4.01877 14.0882 4.08006 14.7128 4.29133 15.2934C4.5026 15.8741 4.85703 16.392 5.32176 16.7992C5.78649 17.2065 6.34649 17.4898 6.94987 17.623C7.55324 17.7561 8.18047 17.7348 8.77344 17.5611C9.3664 17.3873 9.9059 17.0667 10.342 16.6289H10.34Z" fill="#E00000"/>
</svg>
